<?xml version="1.0" standalone="no"?>
<!DOCTYPE svg PUBLIC "-//W3C//DTD SVG 20010904//EN"
 "http://www.w3.org/TR/2001/REC-SVG-20010904/DTD/svg10.dtd">
<svg version="1.0" xmlns="http://www.w3.org/2000/svg"
 width="160.000000pt" height="160.000000pt" viewBox="0 0 160.000000 160.000000"
 preserveAspectRatio="xMidYMid meet">
<metadata>
Created by potrace 1.14, written by Peter Selinger 2001-2017
</metadata>
<g transform="translate(0.000000,160.000000) scale(0.100000,-0.100000)"
fill="#000000" stroke="none">
<path d="M395 1578 c4 -13 16 -32 26 -44 11 -11 19 -27 19 -35 0 -8 9 -27 20
-44 11 -16 20 -43 20 -60 0 -16 9 -43 20 -60 11 -16 20 -40 20 -52 0 -22 -47
-76 -90 -103 -65 -41 -133 -117 -166 -186 -19 -40 -41 -74 -49 -77 -7 -3 -15
-20 -17 -38 -5 -53 -24 -44 -58 28 -29 61 -112 163 -132 163 -4 0 -8 -18 -8
-40 0 -22 4 -40 10 -40 19 0 60 -52 60 -75 0 -14 9 -30 20 -37 12 -8 20 -24
20 -40 0 -15 8 -33 20 -41 15 -10 21 -30 26 -93 8 -99 -2 -112 -74 -98 -37 7
-47 14 -52 33 -3 14 -11 26 -18 29 -9 3 -12 -72 -12 -332 l0 -336 180 0 c140
0 181 3 187 14 4 7 25 16 45 20 31 6 39 3 50 -14 12 -19 22 -20 215 -20 192 0
203 1 213 20 14 26 50 26 57 0 4 -16 14 -20 49 -20 l44 0 0 54 c0 62 5 66 84
66 40 0 57 5 71 20 12 13 31 20 53 20 31 0 46 10 114 78 69 69 78 83 78 115 0
26 -6 39 -20 47 -27 15 -14 40 21 40 18 0 32 -7 39 -20 9 -16 21 -20 65 -20
51 0 55 2 55 24 0 17 -7 26 -25 30 -13 3 -36 17 -51 31 -18 16 -39 25 -60 25
-31 0 -34 3 -34 29 0 19 6 30 18 33 28 8 66 92 57 126 -4 15 -9 52 -12 82 -2
32 -11 60 -19 66 -13 10 -12 16 9 38 19 21 34 26 71 26 42 0 46 2 46 25 0 24
-3 25 -54 25 -39 0 -60 -6 -80 -21 -31 -24 -59 -22 -64 6 -2 11 -43 60 -90
108 -68 69 -103 96 -162 124 -41 20 -77 40 -80 44 -3 4 -18 11 -33 14 -38 10
-41 20 -18 59 19 29 21 49 21 170 l0 136 -30 0 -30 0 -2 -92 c-1 -51 -3 -75
-5 -53 -1 22 -6 64 -9 93 l-5 52 -285 0 -285 0 6 -22z m542 -420 c-2 -13 -4
-3 -4 22 0 25 2 35 4 23 2 -13 2 -33 0 -45z m241 -60 c17 -11 32 -23 32 -27 0
-5 21 -29 46 -55 39 -38 44 -48 34 -61 -7 -8 -21 -15 -32 -15 -34 0 -78 -54
-78 -94 0 -34 -2 -36 -31 -36 -22 0 -32 -5 -36 -19 -3 -11 -11 -22 -19 -25
-21 -8 -41 3 -47 25 -7 26 -47 25 -54 -1 -3 -11 -8 -20 -10 -20 -3 0 -27 21
-54 46 -44 43 -48 50 -44 87 5 47 5 48 41 52 15 1 31 10 36 19 5 9 20 16 33
16 34 0 55 26 55 67 0 73 49 88 128 41z m-813 -418 c35 -17 84 -50 107 -73 69
-69 118 -131 118 -147 0 -8 7 -24 15 -34 33 -43 -31 -115 -102 -116 -39 0 -73
-19 -73 -41 0 -5 -18 -32 -40 -60 -22 -28 -40 -55 -40 -60 0 -5 -6 -9 -14 -9
-16 0 -46 75 -46 117 0 17 -3 38 -6 47 -8 20 -40 21 -47 2 -8 -19 -94 -57
-113 -49 -9 3 -13 12 -8 22 3 9 10 30 14 46 5 17 14 45 21 62 13 31 12 34 -20
67 -19 19 -43 36 -55 38 -12 2 -21 10 -21 18 0 12 21 16 105 20 120 6 125 11
91 79 -25 48 -26 65 -5 85 22 23 46 20 119 -14z m758 -250 c9 -11 25 -20 35
-20 10 0 29 -12 43 -26 24 -25 24 -26 5 -40 -11 -8 -28 -14 -39 -14 -10 0 -30
-9 -44 -20 -21 -16 -41 -20 -105 -20 -106 0 -148 22 -148 78 0 9 14 31 32 49
31 32 34 33 118 33 73 0 88 -3 103 -20z m267 -70 c0 -16 -4 -30 -10 -30 -5 0
-10 14 -10 30 0 17 5 30 10 30 6 0 10 -13 10 -30z m-51 -49 c14 -9 7 -31 -11
-31 -6 0 -28 -16 -49 -35 -27 -24 -49 -35 -70 -35 -18 0 -46 -9 -63 -19 -27
-17 -53 -20 -184 -22 -104 -1 -157 2 -165 10 -6 6 -26 11 -43 11 -40 0 -52 16
-30 38 14 14 43 16 226 13 200 -3 211 -2 236 18 15 12 39 21 54 21 15 0 35 9
45 20 20 22 33 24 54 11z m-547 -199 c17 -17 -28 -62 -63 -62 -15 0 -39 -4
-53 -10 -22 -8 -28 -6 -38 10 -7 11 -19 20 -26 20 -19 0 -26 28 -11 46 11 13
29 15 96 12 46 -2 89 -10 95 -16z"/>
<path d="M1554 755 c-9 -23 3 -45 26 -45 16 0 20 7 20 30 0 23 -4 30 -20 30
-11 0 -23 -7 -26 -15z"/>
<path d="M1561 616 c-7 -8 -11 -34 -9 -58 2 -36 7 -44 26 -46 21 -3 22 0 22
57 0 63 -13 78 -39 47z"/>
</g>
</svg>
